<svg width="196" height="201" viewBox="0 0 196 201" fill="none" xmlns="http://www.w3.org/2000/svg">
<rect x="66.5" y="62.5" width="129" height="129" fill="#EDF8FF" stroke="#0083CC"/>
<g filter="url(#filter0_d_3_8)">
<rect width="87.1959" height="130" transform="matrix(0.707107 0.707107 -0.00820296 0.999966 5.8379 0.771515)" fill="#EDF8FF"/>
<rect x="0.349452" y="0.853537" width="86.1959" height="129" transform="matrix(0.707107 0.707107 -0.00820296 0.999966 5.94725 0.524444)" stroke="#0083CC"/>
</g>
<mask id="path-4-outside-1_3_8" maskUnits="userSpaceOnUse" x="104" y="99" width="56" height="57" fill="black">
<rect fill="white" x="104" y="99" width="56" height="57"/>
<path d="M105.243 100.455H113.127L131.664 145.732H132.303L150.84 100.455H158.723V155H152.544V113.558H152.012L134.966 155H129L111.955 113.558H111.422V155H105.243V100.455Z"/>
</mask>
<path d="M105.243 100.455H113.127L131.664 145.732H132.303L150.84 100.455H158.723V155H152.544V113.558H152.012L134.966 155H129L111.955 113.558H111.422V155H105.243V100.455Z" fill="#0083CC"/>
<path d="M105.243 100.455V99.4545H104.243V100.455H105.243ZM113.127 100.455L114.052 100.076L113.798 99.4545H113.127V100.455ZM131.664 145.732L130.738 146.11L130.993 146.732H131.664V145.732ZM132.303 145.732V146.732H132.974L133.228 146.11L132.303 145.732ZM150.84 100.455V99.4545H150.169L149.914 100.076L150.84 100.455ZM158.723 100.455H159.723V99.4545H158.723V100.455ZM158.723 155V156H159.723V155H158.723ZM152.544 155H151.544V156H152.544V155ZM152.544 113.558H153.544V112.558H152.544V113.558ZM152.012 113.558V112.558H151.342L151.087 113.178L152.012 113.558ZM134.966 155V156H135.636L135.891 155.38L134.966 155ZM129 155L128.076 155.38L128.33 156H129V155ZM111.955 113.558L112.88 113.178L112.625 112.558H111.955V113.558ZM111.422 113.558V112.558H110.422V113.558H111.422ZM111.422 155V156H112.422V155H111.422ZM105.243 155H104.243V156H105.243V155ZM105.243 101.455H113.127V99.4545H105.243V101.455ZM112.201 100.833L130.738 146.11L132.589 145.353L114.052 100.076L112.201 100.833ZM131.664 146.732H132.303V144.732H131.664V146.732ZM133.228 146.11L151.765 100.833L149.914 100.076L131.378 145.353L133.228 146.11ZM150.84 101.455H158.723V99.4545H150.84V101.455ZM157.723 100.455V155H159.723V100.455H157.723ZM158.723 154H152.544V156H158.723V154ZM153.544 155V113.558H151.544V155H153.544ZM152.544 112.558H152.012V114.558H152.544V112.558ZM151.087 113.178L134.041 154.62L135.891 155.38L152.937 113.939L151.087 113.178ZM134.966 154H129V156H134.966V154ZM129.925 154.62L112.88 113.178L111.03 113.939L128.076 155.38L129.925 154.62ZM111.955 112.558H111.422V114.558H111.955V112.558ZM110.422 113.558V155H112.422V113.558H110.422ZM111.422 154H105.243V156H111.422V154ZM106.243 155V100.455H104.243V155H106.243Z" fill="#0083CC" mask="url(#path-4-outside-1_3_8)"/>
<mask id="path-6-outside-2_3_8" maskUnits="userSpaceOnUse" x="15.8995" y="48.8995" width="40.3051" height="97.3051" fill="black">
<rect fill="white" x="15.8995" y="48.8995" width="40.3051" height="97.3051"/>
<path d="M17.0802 51.5347L22.6547 57.1092L35.7622 115.494L36.2142 115.946L49.3218 83.7764L54.8963 89.3508V143.896L50.5271 139.527V98.0853L50.1505 97.7087L38.0975 127.097L33.879 122.879L21.826 69.3842L21.4494 69.0076V110.449L17.0802 106.08V51.5347Z"/>
</mask>
<path d="M17.0802 51.5347L22.6547 57.1092L35.7622 115.494L36.2142 115.946L49.3218 83.7764L54.8963 89.3508V143.896L50.5271 139.527V98.0853L50.1505 97.7087L38.0975 127.097L33.879 122.879L21.826 69.3842L21.4494 69.0076V110.449L17.0802 106.08V51.5347Z" fill="#0083CC"/>
<path d="M17.0802 51.5347V50.5347L16.3731 49.8276V50.8276L17.0802 51.5347ZM22.6547 57.1092L23.309 57.3847L23.1292 56.5838L22.6547 56.1092V57.1092ZM35.7622 115.494L35.1079 115.218L35.2877 116.019L35.7622 116.494V115.494ZM36.2142 115.946V116.946L36.6888 117.42L36.8686 116.979L36.2142 115.946ZM49.3218 83.7764V82.7764L48.8472 82.3018L48.6674 82.7431L49.3218 83.7764ZM54.8963 89.3508L55.6034 90.058V89.058L54.8963 88.3508V89.3508ZM54.8963 143.896V144.896L55.6034 145.603V144.603L54.8963 143.896ZM50.5271 139.527L49.82 138.82V139.82L50.5271 140.527V139.527ZM50.5271 98.0853L51.2342 98.7925V97.7925L50.5271 97.0853V98.0853ZM50.1505 97.7087V96.7087L49.6767 96.2349L49.4965 96.6744L50.1505 97.7087ZM38.0975 127.097V128.097L38.5712 128.571L38.7515 128.132L38.0975 127.097ZM33.879 122.879L33.225 122.605L33.4052 123.405L33.879 123.879V122.879ZM21.826 69.3842L22.48 69.6578L22.2998 68.858L21.826 68.3842V69.3842ZM21.4494 69.0076V68.0076L20.7423 67.3005V68.3005L21.4494 69.0076ZM21.4494 110.449V111.449L22.1565 112.156V111.156L21.4494 110.449ZM17.0802 106.08L16.3731 105.373V106.373L17.0802 107.08V106.08ZM17.0802 52.5347L22.6547 58.1092V56.1092L17.0802 50.5347V52.5347ZM22.0003 56.8337L35.1079 115.218L36.4166 115.769L23.309 57.3847L22.0003 56.8337ZM35.7622 116.494L36.2142 116.946V114.946L35.7622 114.494V116.494ZM36.8686 116.979L49.9762 84.8096L48.6674 82.7431L35.5598 114.912L36.8686 116.979ZM49.3218 84.7764L54.8963 90.3508V88.3508L49.3218 82.7764V84.7764ZM54.1892 88.6437V143.189L55.6034 144.603V90.058L54.1892 88.6437ZM54.8963 142.896L50.5271 138.527V140.527L54.8963 144.896V142.896ZM51.2342 140.234V98.7925L49.82 97.3782V138.82L51.2342 140.234ZM50.5271 97.0853L50.1505 96.7087V98.7087L50.5271 99.0853V97.0853ZM49.4965 96.6744L37.4436 126.063L38.7515 128.132L50.8044 98.743L49.4965 96.6744ZM38.0975 126.097L33.879 121.879V123.879L38.0975 128.097V126.097ZM34.5329 123.153L22.48 69.6578L21.1721 69.1107L33.225 122.605L34.5329 123.153ZM21.826 68.3842L21.4494 68.0076V70.0076L21.826 70.3842V68.3842ZM20.7423 68.3005V109.742L22.1565 111.156V69.7147L20.7423 68.3005ZM21.4494 109.449L17.0802 105.08V107.08L21.4494 111.449V109.449ZM17.7873 106.787V52.2418L16.3731 50.8276V105.373L17.7873 106.787Z" fill="#0083CC" mask="url(#path-6-outside-2_3_8)"/>
<defs>
<filter id="filter0_d_3_8" x="0.771515" y="0.771515" width="70.7232" height="199.652" filterUnits="userSpaceOnUse" color-interpolation-filters="sRGB">
<feFlood flood-opacity="0" result="BackgroundImageFix"/>
<feColorMatrix in="SourceAlpha" type="matrix" values="0 0 0 0 0 0 0 0 0 0 0 0 0 0 0 0 0 0 127 0" result="hardAlpha"/>
<feOffset dy="4"/>
<feGaussianBlur stdDeviation="2"/>
<feComposite in2="hardAlpha" operator="out"/>
<feColorMatrix type="matrix" values="0 0 0 0 0 0 0 0 0 0 0 0 0 0 0 0 0 0 0.25 0"/>
<feBlend mode="normal" in2="BackgroundImageFix" result="effect1_dropShadow_3_8"/>
<feBlend mode="normal" in="SourceGraphic" in2="effect1_dropShadow_3_8" result="shape"/>
</filter>
</defs>
</svg>
